<?xml version="1.0" standalone="no"?><!DOCTYPE svg PUBLIC "-//W3C//DTD SVG 1.1//EN" "http://www.w3.org/Graphics/SVG/1.1/DTD/svg11.dtd"><svg t="1591323680227" class="icon" viewBox="0 0 1024 1024" version="1.1" xmlns="http://www.w3.org/2000/svg" p-id="8025" xmlns:xlink="http://www.w3.org/1999/xlink" width="200" height="200"><defs><style type="text/css"></style></defs><path d="M657.09 766.79H656l-429.94-7.51a62.15 62.15 0 0 1-60.91-63.07l6.67-381.91a62.13 62.13 0 0 1 63.07-60.9l429.94 7.5a62.08 62.08 0 0 1 60.9 63.1l-6.67 381.91a62.07 62.07 0 0 1-61.97 60.88z m-423.3-489.4a38.14 38.14 0 0 0-38 37.33l-6.67 381.91a38.13 38.13 0 0 0 37.33 38.65l429.94 7.51h0.67a38 38 0 0 0 38-37.33l6.67-381.91a38 38 0 0 0-37.33-38.65l-429.94-7.51z" p-id="8026" fill="#707070"></path><path d="M406 599a12 12 0 0 1-12-12V427a12 12 0 0 1 17.8-10.51l145 80a12 12 0 0 1 0 21l-145 80A12.07 12.07 0 0 1 406 599z m12-151.67v119.34L526.16 507zM846 685a12.06 12.06 0 0 1-6.92-2.19l-136-95.92a12 12 0 0 1-5.08-9.81V458.2a12 12 0 0 1 4.17-9.09l136-117.2A12 12 0 0 1 858 341v332a12 12 0 0 1-12 12zM722 570.86l112 79V367.18L722 463.7z" p-id="8027" fill="#707070"></path></svg>